<svg width="145" height="25" viewBox="0 0 145 25" fill="none" xmlns="http://www.w3.org/2000/svg">
<g id="Layer_1" clip-path="url(#clip0_6605_20791)">
<path id="Vector" d="M39.898 0.0346069C32.3544 0.0346069 26.4337 5.46638 26.4337 12.199C26.4337 18.9316 32.3544 24.3634 39.898 24.3634C43.632 24.3634 46.9809 23.021 49.4496 20.7515V23.5538C49.4496 24.4257 50.7562 24.4188 51.3201 24.4188C51.9252 24.4188 53.3418 24.4188 53.3418 23.54L53.3624 12.199C53.3555 5.46638 47.4348 0.0346069 39.898 0.0346069ZM39.898 20.108C34.6649 20.108 30.5184 16.3576 30.5184 12.199C30.5184 8.04042 34.6718 4.29007 39.898 4.29007C45.1243 4.29007 49.2777 8.04042 49.2777 12.199C49.2777 16.3576 45.1311 20.108 39.898 20.108Z" fill="#017649"/>
<path id="Vector_2" d="M110.493 0.214508C111.477 0.214508 112.412 0.671192 112.439 1.3839V23.5815C112.439 24.3081 111.463 24.744 110.493 24.744C109.524 24.744 108.547 24.3011 108.547 23.5815C108.547 23.5677 108.547 1.46001 108.547 1.39774C108.588 0.629676 109.53 0.214508 110.493 0.214508Z" fill="#017649"/>
<path id="Vector_3" d="M145 12.1713C145 18.6825 144.972 23.0003 144.972 23.0556C144.945 23.9828 144.01 24.5641 143.026 24.5641C142.043 24.5641 141.08 23.9552 141.08 23.0418C141.08 23.0418 141.08 16.7105 141.08 12.2544C141.08 8.04041 137.126 4.26239 132.168 4.26239C127.21 4.26239 123.256 8.03349 123.256 12.2544V23.0418C123.256 23.9552 122.307 24.5641 121.31 24.5641C120.313 24.5641 119.364 23.9552 119.364 23.0349C119.364 23.0349 119.337 18.6756 119.337 12.1782C119.337 5.68087 124.941 0 132.168 0C139.396 0 145 5.45253 145 12.1713Z" fill="#017649"/>
<path id="Vector_4" d="M60.968 12.6557C60.968 6.14448 60.9955 1.82674 60.9955 1.77138C61.023 0.844174 61.9582 0.262939 62.9415 0.262939C63.9249 0.262939 64.8876 0.871852 64.8876 1.78522C64.8876 1.78522 64.8876 8.11652 64.8876 12.5727C64.8876 17.0288 67.3494 20.5646 72.1012 20.5646C76.8529 20.5646 79.356 16.8904 79.356 12.5727V1.79214C79.356 0.878771 80.3118 0.269859 81.3846 0.269859C82.4573 0.269859 83.3788 0.871852 83.3788 1.79214C83.3788 1.79214 83.3788 8.12344 83.3788 12.5796C83.3788 17.0357 85.875 20.5715 90.6336 20.5715C95.3922 20.5715 97.8953 16.8973 97.8953 12.5796V1.79214C97.8953 0.878771 98.8443 0.269859 99.8414 0.269859C100.838 0.269859 101.787 0.878771 101.787 1.79906C101.787 1.79906 101.815 6.15832 101.815 12.6557C101.815 19.1531 97.6959 24.827 90.6405 24.827C86.0951 24.827 83.4338 22.3983 81.3777 19.0423C79.2597 22.5021 76.6397 24.827 72.1149 24.827C65.0595 24.827 60.9817 19.3053 60.9817 12.6557H60.968Z" fill="#017649"/>
<path id="Vector_5" d="M13.0174 0.249115H17.5628C18.6493 0.249115 19.5295 1.13481 19.5295 2.22808C19.5295 3.32135 18.6493 4.20704 17.5628 4.20704H13.0174C11.7452 4.20704 10.5693 4.41463 9.50346 4.8298C8.58887 5.20345 7.70867 5.77776 6.86285 6.55274C6.83534 6.58042 6.80096 6.6081 6.78033 6.63578C6.07892 7.42459 5.52191 8.31028 5.11619 9.29285C4.81362 10.0125 4.62108 10.9466 4.55231 12.1021C4.55231 12.1367 4.55231 12.1713 4.55231 12.2059C4.55231 13.0363 3.8784 13.7144 3.05321 13.7144H1.50598C0.680784 13.7144 0.0068766 13.0363 0.0068766 12.2059V12.1575C0.0756426 10.566 0.38509 9.09218 0.935218 7.73597C1.58849 6.14449 2.48245 4.82288 3.62397 3.78496C4.79299 2.67784 6.17519 1.80599 7.75681 1.18324C9.37281 0.560491 11.1332 0.249115 13.0243 0.249115H13.0174ZM15.9675 11.9499H18.5531C19.0963 11.9499 19.5364 12.3928 19.5364 12.9394C19.5364 14.6001 19.227 16.1293 18.6081 17.5132C18.0236 18.9317 17.1296 20.2533 15.9193 21.4642C14.7503 22.5713 13.3681 23.4431 11.7865 24.0659C10.1705 24.6886 8.41008 25 6.51902 25H1.96671C0.880205 25 0 24.1143 0 23.0211C0 21.9278 0.880205 21.0421 1.96671 21.0421H6.51214C7.78431 21.0421 8.96021 20.8345 10.0261 20.4193C11.0576 20.0042 11.9515 19.416 12.7148 18.6549C13.4025 17.9629 13.9733 17.0772 14.4202 16.0047C14.7641 15.0706 14.9704 14.0465 15.0391 12.9394H14.9841C14.9841 12.3928 15.4242 11.9499 15.9675 11.9499Z" fill="#017649"/>
</g>
<defs>
<clipPath id="clip0_6605_20791">
<rect width="145" height="25" fill="white"/>
</clipPath>
</defs>
</svg>
